# xmcd CD database file
#
# Track frame offsets:
#	150
#	47537
#	98937
#	139802
#	166385
#	203192
#	235585
#	257727
#	291672
#
# Disc length: 4393 seconds
#
# Revision: 0
# Processed by: cddbd v1.5.2PL0 Copyright (c) Steve Scherf et al.
# Submitted via: CDex 1.51
#
DISCID=82112709
DTITLE=Maria Schneider Jazz Orchestra - Evanescence
DYEAR=1994
DGENRE=Jazz
TTITLE0=Wyrgly
TTITLE1=Evanescence
TTITLE2=Gumba Blue
TTITLE3=Some Circles
TTITLE4=Green Piece
TTITLE5=Gush
TTITLE6=My Lament
TTITLE7=Dance You Monster To My Soft Song
TTITLE8=Last Season
EXTD=YEAR: 1994
EXTT0=
EXTT1=
EXTT2=
EXTT3=
EXTT4=
EXTT5=
EXTT6=
EXTT7=
EXTT8=
PLAYORDER=
